<svg xmlns="http://www.w3.org/2000/svg" width="600" height="600" viewBox="0 0 600 600">
  <defs>
    <linearGradient id="bgGrad" x1="0%" y1="0%" x2="100%" y2="100%">
      <stop offset="0%" style="stop-color:#0a1215"/>
      <stop offset="100%" style="stop-color:#050a0d"/>
    </linearGradient>
    <linearGradient id="shirtGrad" x1="0%" y1="0%" x2="0%" y2="100%">
      <stop offset="0%" style="stop-color:#1a1a1a"/>
      <stop offset="50%" style="stop-color:#0d0d0d"/>
      <stop offset="100%" style="stop-color:#1a1a1a"/>
    </linearGradient>
    <filter id="glow" x="-50%" y="-50%" width="200%" height="200%">
      <feGaussianBlur stdDeviation="8" result="coloredBlur"/>
      <feMerge>
        <feMergeNode in="coloredBlur"/>
        <feMergeNode in="SourceGraphic"/>
      </feMerge>
    </filter>
    <filter id="innerShadow">
      <feOffset dx="0" dy="2"/>
      <feGaussianBlur stdDeviation="3"/>
      <feComposite in2="SourceAlpha" operator="arithmetic" k2="-1" k3="1"/>
      <feColorMatrix type="matrix" values="0 0 0 0 0 0 0 0 0 0 0 0 0 0 0 0 0 0 0.3 0"/>
      <feBlend in2="SourceGraphic" mode="normal"/>
    </filter>
  </defs>

  <!-- Background -->
  <rect width="600" height="600" fill="url(#bgGrad)"/>

  <!-- T-shirt shape -->
  <g filter="url(#innerShadow)">
    <!-- Main body -->
    <path d="M180 140
             L130 180 L130 240 L170 240 L170 480
             L430 480 L430 240 L470 240 L470 180 L420 140
             L380 170 Q300 130 220 170 Z"
          fill="url(#shirtGrad)" stroke="#2a2a2a" stroke-width="2"/>

    <!-- Collar -->
    <path d="M220 170 Q300 200 380 170 Q340 190 300 200 Q260 190 220 170"
          fill="#0a0a0a" stroke="#222" stroke-width="1"/>

    <!-- Left sleeve shadow -->
    <path d="M130 180 L170 240 L170 180 Z" fill="#080808" opacity="0.5"/>

    <!-- Right sleeve shadow -->
    <path d="M470 180 L430 240 L430 180 Z" fill="#080808" opacity="0.5"/>
  </g>

  <!-- Logo on shirt - stylized LS -->
  <g transform="translate(300, 340)" filter="url(#glow)">
    <text x="0" y="0"
          font-family="Georgia, serif"
          font-size="80"
          font-weight="bold"
          fill="#00CED1"
          text-anchor="middle"
          opacity="0.9">LS</text>
  </g>

  <!-- Subtle texture lines on shirt -->
  <g opacity="0.1" stroke="#00CED1" stroke-width="0.5">
    <line x1="200" y1="260" x2="200" y2="460"/>
    <line x1="250" y1="260" x2="250" y2="460"/>
    <line x1="300" y1="220" x2="300" y2="460"/>
    <line x1="350" y1="260" x2="350" y2="460"/>
    <line x1="400" y1="260" x2="400" y2="460"/>
  </g>

  <!-- Product info -->
  <text x="300" y="540"
        font-family="system-ui, sans-serif"
        font-size="16"
        fill="#666"
        text-anchor="middle"
        letter-spacing="2">PRÓXIMAMENTE</text>
</svg>
